# xmcd CD database file
#
# Track frame offsets:
#	150
#	20420
#	40745
#
# Disc length: 809 seconds
#
# Revision: 0
# Processed by: cddbd v1.5PL3 Copyright (c) Steve Scherf et al.
# Submitted via: CDex 1.51
#
DISCID=19032703
DTITLE=カントリー娘。 - 雪景色
DYEAR=1999
DGENRE=Pop
TTITLE0=雪景色
TTITLE1=雪だより
TTITLE2=雪景色(instrumental)
EXTD=YEAR: 1999
EXTT0=
EXTT1=
EXTT2=
PLAYORDER=
